<svg width="216" height="62" viewBox="0 0 216 62" fill="none" xmlns="http://www.w3.org/2000/svg">
<path d="M99.1111 20.154L93.8461 39H89.3911L85.8541 25.581L82.1551 39L77.7271 39.027L72.6511 20.154H76.7011L80.0221 34.788L83.8561 20.154H88.0681L91.6861 34.707L95.0341 20.154H99.1111ZM110.003 23.826C111.137 23.826 112.145 24.078 113.027 24.582C113.909 25.068 114.593 25.797 115.079 26.769C115.583 27.723 115.835 28.875 115.835 30.225V39H112.055V30.738C112.055 29.55 111.758 28.641 111.164 28.011C110.57 27.363 109.76 27.039 108.734 27.039C107.69 27.039 106.862 27.363 106.25 28.011C105.656 28.641 105.359 29.55 105.359 30.738V39H101.579V19.02H105.359V25.905C105.845 25.257 106.493 24.753 107.303 24.393C108.113 24.015 109.013 23.826 110.003 23.826ZM118.458 31.467C118.458 29.955 118.755 28.614 119.349 27.444C119.961 26.274 120.78 25.374 121.806 24.744C122.85 24.114 124.011 23.799 125.289 23.799C126.405 23.799 127.377 24.024 128.205 24.474C129.051 24.924 129.726 25.491 130.23 26.175V24.042H134.037V39H130.23V36.813C129.744 37.515 129.069 38.1 128.205 38.568C127.359 39.018 126.378 39.243 125.262 39.243C124.002 39.243 122.85 38.919 121.806 38.271C120.78 37.623 119.961 36.714 119.349 35.544C118.755 34.356 118.458 32.997 118.458 31.467ZM130.23 31.521C130.23 30.603 130.05 29.82 129.69 29.172C129.33 28.506 128.844 28.002 128.232 27.66C127.62 27.3 126.963 27.12 126.261 27.12C125.559 27.12 124.911 27.291 124.317 27.633C123.723 27.975 123.237 28.479 122.859 29.145C122.499 29.793 122.319 30.567 122.319 31.467C122.319 32.367 122.499 33.159 122.859 33.843C123.237 34.509 123.723 35.022 124.317 35.382C124.929 35.742 125.577 35.922 126.261 35.922C126.963 35.922 127.62 35.751 128.232 35.409C128.844 35.049 129.33 34.545 129.69 33.897C130.05 33.231 130.23 32.439 130.23 31.521ZM142.13 27.147V34.383C142.13 34.887 142.247 35.256 142.481 35.49C142.733 35.706 143.147 35.814 143.723 35.814H145.478V39H143.102C139.916 39 138.323 37.452 138.323 34.356V27.147H136.541V24.042H138.323V20.343H142.13V24.042H145.478V27.147H142.13ZM153.92 39.243C152.696 39.243 151.598 39.027 150.626 38.595C149.654 38.145 148.88 37.542 148.304 36.786C147.746 36.03 147.44 35.193 147.386 34.275H151.193C151.265 34.851 151.544 35.328 152.03 35.706C152.534 36.084 153.155 36.273 153.893 36.273C154.613 36.273 155.171 36.129 155.567 35.841C155.981 35.553 156.188 35.184 156.188 34.734C156.188 34.248 155.936 33.888 155.432 33.654C154.946 33.402 154.163 33.132 153.083 32.844C151.967 32.574 151.049 32.295 150.329 32.007C149.627 31.719 149.015 31.278 148.493 30.684C147.989 30.09 147.737 29.289 147.737 28.281C147.737 27.453 147.971 26.697 148.439 26.013C148.925 25.329 149.609 24.789 150.491 24.393C151.391 23.997 152.444 23.799 153.65 23.799C155.432 23.799 156.854 24.249 157.916 25.149C158.978 26.031 159.563 27.228 159.671 28.74H156.053C155.999 28.146 155.747 27.678 155.297 27.336C154.865 26.976 154.28 26.796 153.542 26.796C152.858 26.796 152.327 26.922 151.949 27.174C151.589 27.426 151.409 27.777 151.409 28.227C151.409 28.731 151.661 29.118 152.165 29.388C152.669 29.64 153.452 29.901 154.514 30.171C155.594 30.441 156.485 30.72 157.187 31.008C157.889 31.296 158.492 31.746 158.996 32.358C159.518 32.952 159.788 33.744 159.806 34.734C159.806 35.598 159.563 36.372 159.077 37.056C158.609 37.74 157.925 38.28 157.025 38.676C156.143 39.054 155.108 39.243 153.92 39.243ZM161.937 31.467C161.937 29.955 162.234 28.614 162.828 27.444C163.44 26.274 164.259 25.374 165.285 24.744C166.329 24.114 167.49 23.799 168.768 23.799C169.884 23.799 170.856 24.024 171.684 24.474C172.53 24.924 173.205 25.491 173.709 26.175V24.042H177.516V39H173.709V36.813C173.223 37.515 172.548 38.1 171.684 38.568C170.838 39.018 169.857 39.243 168.741 39.243C167.481 39.243 166.329 38.919 165.285 38.271C164.259 37.623 163.44 36.714 162.828 35.544C162.234 34.356 161.937 32.997 161.937 31.467ZM173.709 31.521C173.709 30.603 173.529 29.82 173.169 29.172C172.809 28.506 172.323 28.002 171.711 27.66C171.099 27.3 170.442 27.12 169.74 27.12C169.038 27.12 168.39 27.291 167.796 27.633C167.202 27.975 166.716 28.479 166.338 29.145C165.978 29.793 165.798 30.567 165.798 31.467C165.798 32.367 165.978 33.159 166.338 33.843C166.716 34.509 167.202 35.022 167.796 35.382C168.408 35.742 169.056 35.922 169.74 35.922C170.442 35.922 171.099 35.751 171.711 35.409C172.323 35.049 172.809 34.545 173.169 33.897C173.529 33.231 173.709 32.439 173.709 31.521ZM184.988 26.202C185.474 25.518 186.14 24.951 186.986 24.501C187.85 24.033 188.831 23.799 189.929 23.799C191.207 23.799 192.359 24.114 193.385 24.744C194.429 25.374 195.248 26.274 195.842 27.444C196.454 28.596 196.76 29.937 196.76 31.467C196.76 32.997 196.454 34.356 195.842 35.544C195.248 36.714 194.429 37.623 193.385 38.271C192.359 38.919 191.207 39.243 189.929 39.243C188.831 39.243 187.859 39.018 187.013 38.568C186.185 38.118 185.51 37.551 184.988 36.867V46.128H181.208V24.042H184.988V26.202ZM192.899 31.467C192.899 30.567 192.71 29.793 192.332 29.145C191.972 28.479 191.486 27.975 190.874 27.633C190.28 27.291 189.632 27.12 188.93 27.12C188.246 27.12 187.598 27.3 186.986 27.66C186.392 28.002 185.906 28.506 185.528 29.172C185.168 29.838 184.988 30.621 184.988 31.521C184.988 32.421 185.168 33.204 185.528 33.87C185.906 34.536 186.392 35.049 186.986 35.409C187.598 35.751 188.246 35.922 188.93 35.922C189.632 35.922 190.28 35.742 190.874 35.382C191.486 35.022 191.972 34.509 192.332 33.843C192.71 33.177 192.899 32.385 192.899 31.467ZM203.287 26.202C203.773 25.518 204.439 24.951 205.285 24.501C206.149 24.033 207.13 23.799 208.228 23.799C209.506 23.799 210.658 24.114 211.684 24.744C212.728 25.374 213.547 26.274 214.141 27.444C214.753 28.596 215.059 29.937 215.059 31.467C215.059 32.997 214.753 34.356 214.141 35.544C213.547 36.714 212.728 37.623 211.684 38.271C210.658 38.919 209.506 39.243 208.228 39.243C207.13 39.243 206.158 39.018 205.312 38.568C204.484 38.118 203.809 37.551 203.287 36.867V46.128H199.507V24.042H203.287V26.202ZM211.198 31.467C211.198 30.567 211.009 29.793 210.631 29.145C210.271 28.479 209.785 27.975 209.173 27.633C208.579 27.291 207.931 27.12 207.229 27.12C206.545 27.12 205.897 27.3 205.285 27.66C204.691 28.002 204.205 28.506 203.827 29.172C203.467 29.838 203.287 30.621 203.287 31.521C203.287 32.421 203.467 33.204 203.827 33.87C204.205 34.536 204.691 35.049 205.285 35.409C205.897 35.751 206.545 35.922 207.229 35.922C207.931 35.922 208.579 35.742 209.173 35.382C209.785 35.022 210.271 34.509 210.631 33.843C211.009 33.177 211.198 32.385 211.198 31.467Z" fill="black"/>
<rect width="62" height="62" rx="12" fill="white"/>
<g clip-path="url(#clip0)">
<path d="M48.1754 33.4907C49.7258 23.8394 43.1587 14.7586 33.5074 13.2082C23.8561 11.6579 14.7754 18.2249 13.225 27.8762C11.6746 37.5275 18.2417 46.6083 27.893 48.1587C37.5443 49.709 46.625 43.142 48.1754 33.4907Z" fill="#FF477E"/>
<path d="M21.1 40.7L22.6 35.2C21.8 33.7 21.3 32 21.3 30.3C21.3 24.7 25.9 20.1 31.5 20.1C37.1 20.1 41.7 24.7 41.7 30.3C41.7 35.9 37.1 40.5 31.5 40.5C29.8 40.5 28.2 40.1 26.7 39.3L21.1 40.7ZM26.9 37.2L27.2 37.4C28.5 38.2 29.9 38.6 31.4 38.6C35.9 38.6 39.6 34.9 39.6 30.4C39.6 25.9 35.9 22.2 31.4 22.2C26.9 22.2 23.2 25.9 23.2 30.4C23.2 31.9 23.6 33.4 24.4 34.7L24.6 35.1L23.8 38L26.9 37.2Z" fill="white"/>
<path fill-rule="evenodd" clip-rule="evenodd" d="M35.3 31.7C34.9 31.4 34.3 31.2 33.8 31.4C33.4 31.6 33.2 32.1 32.9 32.4C32.8 32.6 32.6 32.6 32.4 32.5C31.1 32 30 31 29.2 29.7C29.1 29.5 29.1 29.3 29.3 29.1C29.5 28.8 29.8 28.5 29.9 28.1C30 27.7 29.8 27.3 29.6 27C29.4 26.6 29.2 26 28.8 25.7C28.4 25.5 27.9 25.6 27.5 25.9C26.9 26.4 26.6 27.2 26.6 27.9C26.6 28.1 26.6 28.3 26.7 28.5C26.8 29 27.1 29.5 27.3 29.9C27.5 30.2 27.7 30.6 27.9 30.9C28.7 31.9 29.6 32.8 30.7 33.5C31.2 33.8 31.8 34.1 32.4 34.3C33.1 34.5 33.7 34.8 34.4 34.6C35.2 34.5 35.9 34 36.2 33.2C36.3 33 36.3 32.7 36.3 32.5C36.3 32.2 35.7 31.9 35.3 31.7Z" fill="white"/>
</g>
<defs>
<clipPath id="clip0">
<rect width="35.4" height="35.4" fill="white" transform="translate(13 13)"/>
</clipPath>
</defs>
</svg>
