<svg width="225" height="62" viewBox="0 0 225 62" fill="none" xmlns="http://www.w3.org/2000/svg">
<path d="M83.5 21.154V24.205H75.643V29.038H81.664V32.035H75.643V40H71.863V21.154H83.5ZM85.2084 32.467C85.2084 30.955 85.5054 29.614 86.0994 28.444C86.7114 27.274 87.5304 26.374 88.5564 25.744C89.6004 25.114 90.7614 24.799 92.0394 24.799C93.1554 24.799 94.1274 25.024 94.9554 25.474C95.8014 25.924 96.4764 26.491 96.9804 27.175V25.042H100.787V40H96.9804V37.813C96.4944 38.515 95.8194 39.1 94.9554 39.568C94.1094 40.018 93.1284 40.243 92.0124 40.243C90.7524 40.243 89.6004 39.919 88.5564 39.271C87.5304 38.623 86.7114 37.714 86.0994 36.544C85.5054 35.356 85.2084 33.997 85.2084 32.467ZM96.9804 32.521C96.9804 31.603 96.8004 30.82 96.4404 30.172C96.0804 29.506 95.5944 29.002 94.9824 28.66C94.3704 28.3 93.7134 28.12 93.0114 28.12C92.3094 28.12 91.6614 28.291 91.0674 28.633C90.4734 28.975 89.9874 29.479 89.6094 30.145C89.2494 30.793 89.0694 31.567 89.0694 32.467C89.0694 33.367 89.2494 34.159 89.6094 34.843C89.9874 35.509 90.4734 36.022 91.0674 36.382C91.6794 36.742 92.3274 36.922 93.0114 36.922C93.7134 36.922 94.3704 36.751 94.9824 36.409C95.5944 36.049 96.0804 35.545 96.4404 34.897C96.8004 34.231 96.9804 33.439 96.9804 32.521ZM103.507 32.521C103.507 30.973 103.822 29.623 104.452 28.471C105.082 27.301 105.955 26.401 107.071 25.771C108.187 25.123 109.465 24.799 110.905 24.799C112.759 24.799 114.289 25.267 115.495 26.203C116.719 27.121 117.538 28.417 117.952 30.091H113.875C113.659 29.443 113.29 28.939 112.768 28.579C112.264 28.201 111.634 28.012 110.878 28.012C109.798 28.012 108.943 28.408 108.313 29.2C107.683 29.974 107.368 31.081 107.368 32.521C107.368 33.943 107.683 35.05 108.313 35.842C108.943 36.616 109.798 37.003 110.878 37.003C112.408 37.003 113.407 36.319 113.875 34.951H117.952C117.538 36.571 116.719 37.858 115.495 38.812C114.271 39.766 112.741 40.243 110.905 40.243C109.465 40.243 108.187 39.928 107.071 39.298C105.955 38.65 105.082 37.75 104.452 36.598C103.822 35.428 103.507 34.069 103.507 32.521ZM134.626 32.197C134.626 32.737 134.59 33.223 134.518 33.655H123.583C123.673 34.735 124.051 35.581 124.717 36.193C125.383 36.805 126.202 37.111 127.174 37.111C128.578 37.111 129.577 36.508 130.171 35.302H134.248C133.816 36.742 132.988 37.93 131.764 38.866C130.54 39.784 129.037 40.243 127.255 40.243C125.815 40.243 124.519 39.928 123.367 39.298C122.233 38.65 121.342 37.741 120.694 36.571C120.064 35.401 119.749 34.051 119.749 32.521C119.749 30.973 120.064 29.614 120.694 28.444C121.324 27.274 122.206 26.374 123.34 25.744C124.474 25.114 125.779 24.799 127.255 24.799C128.677 24.799 129.946 25.105 131.062 25.717C132.196 26.329 133.069 27.202 133.681 28.336C134.311 29.452 134.626 30.739 134.626 32.197ZM130.711 31.117C130.693 30.145 130.342 29.371 129.658 28.795C128.974 28.201 128.137 27.904 127.147 27.904C126.211 27.904 125.419 28.192 124.771 28.768C124.141 29.326 123.754 30.109 123.61 31.117H130.711ZM141.165 27.229C141.651 26.509 142.317 25.924 143.163 25.474C144.027 25.024 145.008 24.799 146.106 24.799C147.384 24.799 148.536 25.114 149.562 25.744C150.606 26.374 151.425 27.274 152.019 28.444C152.631 29.596 152.937 30.937 152.937 32.467C152.937 33.997 152.631 35.356 152.019 36.544C151.425 37.714 150.606 38.623 149.562 39.271C148.536 39.919 147.384 40.243 146.106 40.243C144.99 40.243 144.009 40.027 143.163 39.595C142.335 39.145 141.669 38.569 141.165 37.867V40H137.385V20.02H141.165V27.229ZM149.076 32.467C149.076 31.567 148.887 30.793 148.509 30.145C148.149 29.479 147.663 28.975 147.051 28.633C146.457 28.291 145.809 28.12 145.107 28.12C144.423 28.12 143.775 28.3 143.163 28.66C142.569 29.002 142.083 29.506 141.705 30.172C141.345 30.838 141.165 31.621 141.165 32.521C141.165 33.421 141.345 34.204 141.705 34.87C142.083 35.536 142.569 36.049 143.163 36.409C143.775 36.751 144.423 36.922 145.107 36.922C145.809 36.922 146.457 36.742 147.051 36.382C147.663 36.022 148.149 35.509 148.509 34.843C148.887 34.177 149.076 33.385 149.076 32.467ZM162.326 40.243C160.886 40.243 159.59 39.928 158.438 39.298C157.286 38.65 156.377 37.741 155.711 36.571C155.063 35.401 154.739 34.051 154.739 32.521C154.739 30.991 155.072 29.641 155.738 28.471C156.422 27.301 157.349 26.401 158.519 25.771C159.689 25.123 160.994 24.799 162.434 24.799C163.874 24.799 165.179 25.123 166.349 25.771C167.519 26.401 168.437 27.301 169.103 28.471C169.787 29.641 170.129 30.991 170.129 32.521C170.129 34.051 169.778 35.401 169.076 36.571C168.392 37.741 167.456 38.65 166.268 39.298C165.098 39.928 163.784 40.243 162.326 40.243ZM162.326 36.949C163.01 36.949 163.649 36.787 164.243 36.463C164.855 36.121 165.341 35.617 165.701 34.951C166.061 34.285 166.241 33.475 166.241 32.521C166.241 31.099 165.863 30.01 165.107 29.254C164.369 28.48 163.46 28.093 162.38 28.093C161.3 28.093 160.391 28.48 159.653 29.254C158.933 30.01 158.573 31.099 158.573 32.521C158.573 33.943 158.924 35.041 159.626 35.815C160.346 36.571 161.246 36.949 162.326 36.949ZM179.544 40.243C178.104 40.243 176.808 39.928 175.656 39.298C174.504 38.65 173.595 37.741 172.929 36.571C172.281 35.401 171.957 34.051 171.957 32.521C171.957 30.991 172.29 29.641 172.956 28.471C173.64 27.301 174.567 26.401 175.737 25.771C176.907 25.123 178.212 24.799 179.652 24.799C181.092 24.799 182.397 25.123 183.567 25.771C184.737 26.401 185.655 27.301 186.321 28.471C187.005 29.641 187.347 30.991 187.347 32.521C187.347 34.051 186.996 35.401 186.294 36.571C185.61 37.741 184.674 38.65 183.486 39.298C182.316 39.928 181.002 40.243 179.544 40.243ZM179.544 36.949C180.228 36.949 180.867 36.787 181.461 36.463C182.073 36.121 182.559 35.617 182.919 34.951C183.279 34.285 183.459 33.475 183.459 32.521C183.459 31.099 183.081 30.01 182.325 29.254C181.587 28.48 180.678 28.093 179.598 28.093C178.518 28.093 177.609 28.48 176.871 29.254C176.151 30.01 175.791 31.099 175.791 32.521C175.791 33.943 176.142 35.041 176.844 35.815C177.564 36.571 178.464 36.949 179.544 36.949ZM198.976 40L193.9 33.628V40H190.12V20.02H193.9V31.387L198.922 25.042H203.836L197.248 32.548L203.89 40H198.976Z" fill="black"/>
<rect width="62" height="62" rx="12" fill="white"/>
<g clip-path="url(#clip0)">
<path d="M48.4 30.7C48.4 20.9 40.5 13 30.7 13C20.9 13 13 20.9 13 30.7C13 39.5 19.5 46.8 27.9 48.2V35.8H23.4V30.7H27.9V26.8C27.9 22.4 30.5 19.9 34.6 19.9C36.5 19.9 38.6 20.2 38.6 20.2V24.6H36.4C34.2 24.6 33.5 26 33.5 27.4V30.7H38.4L37.6 35.8H33.5V48.2C41.9 46.8 48.4 39.5 48.4 30.7Z" fill="#337FFF"/>
<path d="M37.6 35.8L38.4 30.7H33.5V27.4C33.5 26 34.2 24.6 36.4 24.6H38.6V20.3C38.6 20.3 36.6 20 34.6 20C30.6 20 27.9 22.4 27.9 26.9V30.8H23.4V35.9H27.9V48.3C28.8 48.4 29.7 48.5 30.7 48.5C31.7 48.5 32.6 48.4 33.5 48.3V35.8H37.6Z" fill="white"/>
</g>
<defs>
<clipPath id="clip0">
<rect width="35.4" height="35.4" fill="white" transform="translate(13 13)"/>
</clipPath>
</defs>
</svg>
