<svg width="225" height="62" viewBox="0 0 225 62" fill="none" xmlns="http://www.w3.org/2000/svg">
<path d="M75.643 26.154V45H71.863V26.154H75.643ZM87.6666 29.826C89.4486 29.826 90.8886 30.393 91.9866 31.527C93.0846 32.643 93.6336 34.209 93.6336 36.225V45H89.8536V36.738C89.8536 35.55 89.5566 34.641 88.9626 34.011C88.3686 33.363 87.5586 33.039 86.5326 33.039C85.4886 33.039 84.6606 33.363 84.0486 34.011C83.4546 34.641 83.1576 35.55 83.1576 36.738V45H79.3776V30.042H83.1576V31.905C83.6616 31.257 84.3006 30.753 85.0746 30.393C85.8666 30.015 86.7306 29.826 87.6666 29.826ZM102.952 45.243C101.728 45.243 100.63 45.027 99.6582 44.595C98.6862 44.145 97.9122 43.542 97.3362 42.786C96.7782 42.03 96.4722 41.193 96.4182 40.275H100.225C100.297 40.851 100.576 41.328 101.062 41.706C101.566 42.084 102.187 42.273 102.925 42.273C103.645 42.273 104.203 42.129 104.599 41.841C105.013 41.553 105.22 41.184 105.22 40.734C105.22 40.248 104.968 39.888 104.464 39.654C103.978 39.402 103.195 39.132 102.115 38.844C100.999 38.574 100.081 38.295 99.3612 38.007C98.6592 37.719 98.0472 37.278 97.5252 36.684C97.0212 36.09 96.7692 35.289 96.7692 34.281C96.7692 33.453 97.0032 32.697 97.4712 32.013C97.9572 31.329 98.6412 30.789 99.5232 30.393C100.423 29.997 101.476 29.799 102.682 29.799C104.464 29.799 105.886 30.249 106.948 31.149C108.01 32.031 108.595 33.228 108.703 34.74H105.085C105.031 34.146 104.779 33.678 104.329 33.336C103.897 32.976 103.312 32.796 102.574 32.796C101.89 32.796 101.359 32.922 100.981 33.174C100.621 33.426 100.441 33.777 100.441 34.227C100.441 34.731 100.693 35.118 101.197 35.388C101.701 35.64 102.484 35.901 103.546 36.171C104.626 36.441 105.517 36.72 106.219 37.008C106.921 37.296 107.524 37.746 108.028 38.358C108.55 38.952 108.82 39.744 108.838 40.734C108.838 41.598 108.595 42.372 108.109 43.056C107.641 43.74 106.957 44.28 106.057 44.676C105.175 45.054 104.14 45.243 102.952 45.243ZM116.342 33.147V40.383C116.342 40.887 116.459 41.256 116.693 41.49C116.945 41.706 117.359 41.814 117.935 41.814H119.69V45H117.314C114.128 45 112.535 43.452 112.535 40.356V33.147H110.753V30.042H112.535V26.343H116.342V30.042H119.69V33.147H116.342ZM121.437 37.467C121.437 35.955 121.734 34.614 122.328 33.444C122.94 32.274 123.759 31.374 124.785 30.744C125.829 30.114 126.99 29.799 128.268 29.799C129.384 29.799 130.356 30.024 131.184 30.474C132.03 30.924 132.705 31.491 133.209 32.175V30.042H137.016V45H133.209V42.813C132.723 43.515 132.048 44.1 131.184 44.568C130.338 45.018 129.357 45.243 128.241 45.243C126.981 45.243 125.829 44.919 124.785 44.271C123.759 43.623 122.94 42.714 122.328 41.544C121.734 40.356 121.437 38.997 121.437 37.467ZM133.209 37.521C133.209 36.603 133.029 35.82 132.669 35.172C132.309 34.506 131.823 34.002 131.211 33.66C130.599 33.3 129.942 33.12 129.24 33.12C128.538 33.12 127.89 33.291 127.296 33.633C126.702 33.975 126.216 34.479 125.838 35.145C125.478 35.793 125.298 36.567 125.298 37.467C125.298 38.367 125.478 39.159 125.838 39.843C126.216 40.509 126.702 41.022 127.296 41.382C127.908 41.742 128.556 41.922 129.24 41.922C129.942 41.922 130.599 41.751 131.211 41.409C131.823 41.049 132.309 40.545 132.669 39.897C133.029 39.231 133.209 38.439 133.209 37.521ZM146.567 29.799C147.683 29.799 148.664 30.024 149.51 30.474C150.356 30.906 151.022 31.473 151.508 32.175V30.042H155.315V45.108C155.315 46.494 155.036 47.727 154.478 48.807C153.92 49.905 153.083 50.769 151.967 51.399C150.851 52.047 149.501 52.371 147.917 52.371C145.793 52.371 144.047 51.876 142.679 50.886C141.329 49.896 140.564 48.546 140.384 46.836H144.137C144.335 47.52 144.758 48.06 145.406 48.456C146.072 48.87 146.873 49.077 147.809 49.077C148.907 49.077 149.798 48.744 150.482 48.078C151.166 47.43 151.508 46.44 151.508 45.108V42.786C151.022 43.488 150.347 44.073 149.483 44.541C148.637 45.009 147.665 45.243 146.567 45.243C145.307 45.243 144.155 44.919 143.111 44.271C142.067 43.623 141.239 42.714 140.627 41.544C140.033 40.356 139.736 38.997 139.736 37.467C139.736 35.955 140.033 34.614 140.627 33.444C141.239 32.274 142.058 31.374 143.084 30.744C144.128 30.114 145.289 29.799 146.567 29.799ZM151.508 37.521C151.508 36.603 151.328 35.82 150.968 35.172C150.608 34.506 150.122 34.002 149.51 33.66C148.898 33.3 148.241 33.12 147.539 33.12C146.837 33.12 146.189 33.291 145.595 33.633C145.001 33.975 144.515 34.479 144.137 35.145C143.777 35.793 143.597 36.567 143.597 37.467C143.597 38.367 143.777 39.159 144.137 39.843C144.515 40.509 145.001 41.022 145.595 41.382C146.207 41.742 146.855 41.922 147.539 41.922C148.241 41.922 148.898 41.751 149.51 41.409C150.122 41.049 150.608 40.545 150.968 39.897C151.328 39.231 151.508 38.439 151.508 37.521ZM162.787 32.364C163.273 31.572 163.903 30.951 164.677 30.501C165.469 30.051 166.369 29.826 167.377 29.826V33.795H166.378C165.19 33.795 164.29 34.074 163.678 34.632C163.084 35.19 162.787 36.162 162.787 37.548V45H159.007V30.042H162.787V32.364ZM168.951 37.467C168.951 35.955 169.248 34.614 169.842 33.444C170.454 32.274 171.273 31.374 172.299 30.744C173.343 30.114 174.504 29.799 175.782 29.799C176.898 29.799 177.87 30.024 178.698 30.474C179.544 30.924 180.219 31.491 180.723 32.175V30.042H184.53V45H180.723V42.813C180.237 43.515 179.562 44.1 178.698 44.568C177.852 45.018 176.871 45.243 175.755 45.243C174.495 45.243 173.343 44.919 172.299 44.271C171.273 43.623 170.454 42.714 169.842 41.544C169.248 40.356 168.951 38.997 168.951 37.467ZM180.723 37.521C180.723 36.603 180.543 35.82 180.183 35.172C179.823 34.506 179.337 34.002 178.725 33.66C178.113 33.3 177.456 33.12 176.754 33.12C176.052 33.12 175.404 33.291 174.81 33.633C174.216 33.975 173.73 34.479 173.352 35.145C172.992 35.793 172.812 36.567 172.812 37.467C172.812 38.367 172.992 39.159 173.352 39.843C173.73 40.509 174.216 41.022 174.81 41.382C175.422 41.742 176.07 41.922 176.754 41.922C177.456 41.922 178.113 41.751 178.725 41.409C179.337 41.049 179.823 40.545 180.183 39.897C180.543 39.231 180.723 38.439 180.723 37.521ZM206.797 29.826C208.633 29.826 210.109 30.393 211.225 31.527C212.359 32.643 212.926 34.209 212.926 36.225V45H209.146V36.738C209.146 35.568 208.849 34.677 208.255 34.065C207.661 33.435 206.851 33.12 205.825 33.12C204.799 33.12 203.98 33.435 203.368 34.065C202.774 34.677 202.477 35.568 202.477 36.738V45H198.697V36.738C198.697 35.568 198.4 34.677 197.806 34.065C197.212 33.435 196.402 33.12 195.376 33.12C194.332 33.12 193.504 33.435 192.892 34.065C192.298 34.677 192.001 35.568 192.001 36.738V45H188.221V30.042H192.001V31.851C192.487 31.221 193.108 30.726 193.864 30.366C194.638 30.006 195.484 29.826 196.402 29.826C197.572 29.826 198.616 30.078 199.534 30.582C200.452 31.068 201.163 31.77 201.667 32.688C202.153 31.824 202.855 31.131 203.773 30.609C204.709 30.087 205.717 29.826 206.797 29.826Z" fill="black"/>
<rect width="62" height="62" rx="12" fill="white"/>
<g clip-path="url(#clip0)">
<g clip-path="url(#clip1)">
<path d="M30.7 48.4C40.4754 48.4 48.4 40.4754 48.4 30.7C48.4 20.9246 40.4754 13 30.7 13C20.9246 13 13 20.9246 13 30.7C13 40.4754 20.9246 48.4 30.7 48.4Z" fill="url(#paint0_linear)"/>
<path d="M36.2 24C35.5 24 35 24.5 35 25.2C35 25.9 35.5 26.4 36.2 26.4C36.9 26.4 37.4 25.9 37.4 25.2C37.4 24.5 36.9 24 36.2 24Z" fill="white"/>
<path d="M30.8 25.6001C28 25.6001 25.7 27.9001 25.7 30.7001C25.7 33.5001 28 35.8001 30.8 35.8001C33.6 35.8001 35.9 33.5001 35.9 30.7001C35.9 27.8001 33.6 25.6001 30.8 25.6001ZM30.8 33.9001C29 33.9001 27.5 32.4001 27.5 30.6001C27.5 28.8001 29 27.3001 30.8 27.3001C32.6 27.3001 34.1 28.8001 34.1 30.6001C34 32.5001 32.6 33.9001 30.8 33.9001Z" fill="white"/>
<path d="M34.8 41H26.5C23.1 41 20.3 38.2 20.3 34.8V26.5C20.3 23.1 23.1 20.3 26.5 20.3H34.8C38.2 20.3 41 23.1 41 26.5V34.8C41.1 38.2 38.3 41 34.8 41ZM26.5 22.2C24.1 22.2 22.2 24.1 22.2 26.5V34.8C22.2 37.2 24.1 39.1 26.5 39.1H34.8C37.2 39.1 39.1 37.2 39.1 34.8V26.5C39.1 24.1 37.2 22.2 34.8 22.2H26.5Z" fill="white"/>
</g>
</g>
<defs>
<linearGradient id="paint0_linear" x1="14.1196" y1="16.6948" x2="49.4942" y2="46.5721" gradientUnits="userSpaceOnUse">
<stop offset="0.0011048" stop-color="#FBE18A"/>
<stop offset="0.2094" stop-color="#FCBB45"/>
<stop offset="0.3765" stop-color="#F75274"/>
<stop offset="0.5238" stop-color="#D53692"/>
<stop offset="0.7394" stop-color="#8F39CE"/>
<stop offset="1" stop-color="#5B4FE9"/>
</linearGradient>
<clipPath id="clip0">
<rect width="35.4" height="35.4" fill="white" transform="translate(13 13)"/>
</clipPath>
<clipPath id="clip1">
<rect width="35.4" height="35.4" fill="white" transform="translate(13 13)"/>
</clipPath>
</defs>
</svg>
