<svg width="224" height="62" viewBox="0 0 224 62" fill="none" xmlns="http://www.w3.org/2000/svg">
<path d="M86.688 23.154V26.205H81.666V42H77.886V26.205H72.864V23.154H86.688ZM91.363 25.26C90.697 25.26 90.139 25.053 89.689 24.639C89.257 24.207 89.041 23.676 89.041 23.046C89.041 22.416 89.257 21.894 89.689 21.48C90.139 21.048 90.697 20.832 91.363 20.832C92.029 20.832 92.578 21.048 93.01 21.48C93.46 21.894 93.685 22.416 93.685 23.046C93.685 23.676 93.46 24.207 93.01 24.639C92.578 25.053 92.029 25.26 91.363 25.26ZM93.226 27.042V42H89.446V27.042H93.226ZM105.817 42L100.741 35.628V42H96.9607V22.02H100.741V33.387L105.763 27.042H110.677L104.089 34.548L110.731 42H105.817ZM125.553 23.154V26.205H120.531V42H116.751V26.205H111.729V23.154H125.553ZM134.953 42.243C133.513 42.243 132.217 41.928 131.065 41.298C129.913 40.65 129.004 39.741 128.338 38.571C127.69 37.401 127.366 36.051 127.366 34.521C127.366 32.991 127.699 31.641 128.365 30.471C129.049 29.301 129.976 28.401 131.146 27.771C132.316 27.123 133.621 26.799 135.061 26.799C136.501 26.799 137.806 27.123 138.976 27.771C140.146 28.401 141.064 29.301 141.73 30.471C142.414 31.641 142.756 32.991 142.756 34.521C142.756 36.051 142.405 37.401 141.703 38.571C141.019 39.741 140.083 40.65 138.895 41.298C137.725 41.928 136.411 42.243 134.953 42.243ZM134.953 38.949C135.637 38.949 136.276 38.787 136.87 38.463C137.482 38.121 137.968 37.617 138.328 36.951C138.688 36.285 138.868 35.475 138.868 34.521C138.868 33.099 138.49 32.01 137.734 31.254C136.996 30.48 136.087 30.093 135.007 30.093C133.927 30.093 133.018 30.48 132.28 31.254C131.56 32.01 131.2 33.099 131.2 34.521C131.2 35.943 131.551 37.041 132.253 37.815C132.973 38.571 133.873 38.949 134.953 38.949ZM154.385 42L149.309 35.628V42H145.529V22.02H149.309V33.387L154.331 27.042H159.245L152.657 34.548L159.299 42H154.385Z" fill="black"/>
<rect width="62" height="62" rx="12" fill="white"/>
<path d="M31.7 49.4C41.4755 49.4 49.4 41.4754 49.4 31.7C49.4 21.9246 41.4755 14 31.7 14C21.9246 14 14 21.9246 14 31.7C14 41.4754 21.9246 49.4 31.7 49.4Z" fill="#FF477E"/>
<path fill-rule="evenodd" clip-rule="evenodd" d="M36.3001 28.6C37.7001 29.6 39.5001 30.2 41.4001 30.2V26.6C41.0001 26.6 40.7001 26.6 40.3001 26.5V29.4C38.4001 29.4 36.6001 28.8 35.2001 27.8V35.2001C35.2001 38.9002 32.2001 41.9003 28.5001 41.9003C27.1001 41.9003 25.8001 41.5003 24.7001 40.8003C25.9001 42.1003 27.6001 42.8003 29.5001 42.8003C33.2001 42.8003 36.2001 39.8002 36.2001 36.1002L36.3001 28.6ZM37.7001 24.9999C37.0001 24.1999 36.5001 23.1999 36.4001 21.9999V21.4999H35.4001C35.6001 22.9999 36.4001 24.1999 37.7001 24.9999ZM27.1001 37.9002C26.7001 37.4002 26.5001 36.7002 26.5001 36.0002C26.5001 34.3001 27.9001 32.9001 29.6001 32.9001C29.9001 32.9001 30.2001 32.9001 30.5001 33.0001V29.3C30.1001 29.3 29.8001 29.2 29.4001 29.2V32.1001C29.1001 32.0001 28.8001 32.0001 28.5001 32.0001C26.8001 32.0001 25.4001 33.4001 25.4001 35.1001C25.4001 36.4002 26.1001 37.4002 27.1001 37.9002Z" fill="#EE1D52"/>
<path fill-rule="evenodd" clip-rule="evenodd" d="M35.3001 27.8C36.7001 28.8 38.5001 29.4 40.4001 29.4V26.5C39.3001 26.3 38.4001 25.7 37.7001 25C36.5001 24.2 35.6001 23 35.4001 21.6H32.7001V36.2C32.7001 37.9 31.3001 39.3 29.6001 39.3C28.6001 39.3 27.7001 38.8 27.1001 38.1C26.1001 37.6 25.4001 36.5 25.4001 35.3C25.4001 33.6 26.8001 32.2 28.5001 32.2C28.8001 32.2 29.1001 32.3 29.4001 32.3V29.4C25.7001 29.5 22.8 32.5 22.8 36.1C22.8 37.9 23.5 39.6 24.7001 40.8C25.8001 41.5 27.1001 41.9 28.5001 41.9C32.2001 41.9 35.2001 38.9 35.2001 35.2V27.8H35.3001Z" fill="white"/>
<path fill-rule="evenodd" clip-rule="evenodd" d="M40.4001 26.5V25.7C39.4001 25.7 38.5001 25.4 37.7001 24.9C38.4001 25.7 39.3001 26.3 40.4001 26.5ZM35.3001 21.5C35.3001 21.4 35.3001 21.2 35.2001 21.1V20.6H31.5001V35.2C31.5001 36.9 30.1001 38.3 28.4001 38.3C27.9001 38.3 27.4001 38.2 27.0001 38C27.6001 38.7 28.5001 39.2 29.5001 39.2C31.2001 39.2 32.6001 37.8 32.6001 36.1V21.5H35.3001ZM29.4001 29.3V28.5C29.1001 28.5 28.8001 28.4 28.5001 28.4C24.8001 28.4 21.8 31.4 21.8 35.1C21.8 37.4 23.0001 39.5 24.8001 40.7C23.6001 39.5 22.9001 37.8 22.9001 36C22.8001 32.4 25.8001 29.4 29.4001 29.3Z" fill="#69C9D0"/>
</svg>
