<svg width="225" height="62" viewBox="0 0 225 62" fill="none" xmlns="http://www.w3.org/2000/svg">
<path d="M99.054 20.154L93.789 39H89.334L85.797 25.581L82.098 39L77.67 39.027L72.594 20.154H76.644L79.965 34.788L83.799 20.154H88.011L91.629 34.707L94.977 20.154H99.054ZM109.946 23.826C111.08 23.826 112.088 24.078 112.97 24.582C113.852 25.068 114.536 25.797 115.022 26.769C115.526 27.723 115.778 28.875 115.778 30.225V39H111.998V30.738C111.998 29.55 111.701 28.641 111.107 28.011C110.513 27.363 109.703 27.039 108.677 27.039C107.633 27.039 106.805 27.363 106.193 28.011C105.599 28.641 105.302 29.55 105.302 30.738V39H101.522V19.02H105.302V25.905C105.788 25.257 106.436 24.753 107.246 24.393C108.056 24.015 108.956 23.826 109.946 23.826ZM118.401 31.467C118.401 29.955 118.698 28.614 119.292 27.444C119.904 26.274 120.723 25.374 121.749 24.744C122.793 24.114 123.954 23.799 125.232 23.799C126.348 23.799 127.32 24.024 128.148 24.474C128.994 24.924 129.669 25.491 130.173 26.175V24.042H133.98V39H130.173V36.813C129.687 37.515 129.012 38.1 128.148 38.568C127.302 39.018 126.321 39.243 125.205 39.243C123.945 39.243 122.793 38.919 121.749 38.271C120.723 37.623 119.904 36.714 119.292 35.544C118.698 34.356 118.401 32.997 118.401 31.467ZM130.173 31.521C130.173 30.603 129.993 29.82 129.633 29.172C129.273 28.506 128.787 28.002 128.175 27.66C127.563 27.3 126.906 27.12 126.204 27.12C125.502 27.12 124.854 27.291 124.26 27.633C123.666 27.975 123.18 28.479 122.802 29.145C122.442 29.793 122.262 30.567 122.262 31.467C122.262 32.367 122.442 33.159 122.802 33.843C123.18 34.509 123.666 35.022 124.26 35.382C124.872 35.742 125.52 35.922 126.204 35.922C126.906 35.922 127.563 35.751 128.175 35.409C128.787 35.049 129.273 34.545 129.633 33.897C129.993 33.231 130.173 32.439 130.173 31.521ZM142.073 27.147V34.383C142.073 34.887 142.19 35.256 142.424 35.49C142.676 35.706 143.09 35.814 143.666 35.814H145.421V39H143.045C139.859 39 138.266 37.452 138.266 34.356V27.147H136.484V24.042H138.266V20.343H142.073V24.042H145.421V27.147H142.073ZM153.863 39.243C152.639 39.243 151.541 39.027 150.569 38.595C149.597 38.145 148.823 37.542 148.247 36.786C147.689 36.03 147.383 35.193 147.329 34.275H151.136C151.208 34.851 151.487 35.328 151.973 35.706C152.477 36.084 153.098 36.273 153.836 36.273C154.556 36.273 155.114 36.129 155.51 35.841C155.924 35.553 156.131 35.184 156.131 34.734C156.131 34.248 155.879 33.888 155.375 33.654C154.889 33.402 154.106 33.132 153.026 32.844C151.91 32.574 150.992 32.295 150.272 32.007C149.57 31.719 148.958 31.278 148.436 30.684C147.932 30.09 147.68 29.289 147.68 28.281C147.68 27.453 147.914 26.697 148.382 26.013C148.868 25.329 149.552 24.789 150.434 24.393C151.334 23.997 152.387 23.799 153.593 23.799C155.375 23.799 156.797 24.249 157.859 25.149C158.921 26.031 159.506 27.228 159.614 28.74H155.996C155.942 28.146 155.69 27.678 155.24 27.336C154.808 26.976 154.223 26.796 153.485 26.796C152.801 26.796 152.27 26.922 151.892 27.174C151.532 27.426 151.352 27.777 151.352 28.227C151.352 28.731 151.604 29.118 152.108 29.388C152.612 29.64 153.395 29.901 154.457 30.171C155.537 30.441 156.428 30.72 157.13 31.008C157.832 31.296 158.435 31.746 158.939 32.358C159.461 32.952 159.731 33.744 159.749 34.734C159.749 35.598 159.506 36.372 159.02 37.056C158.552 37.74 157.868 38.28 156.968 38.676C156.086 39.054 155.051 39.243 153.863 39.243ZM161.88 31.467C161.88 29.955 162.177 28.614 162.771 27.444C163.383 26.274 164.202 25.374 165.228 24.744C166.272 24.114 167.433 23.799 168.711 23.799C169.827 23.799 170.799 24.024 171.627 24.474C172.473 24.924 173.148 25.491 173.652 26.175V24.042H177.459V39H173.652V36.813C173.166 37.515 172.491 38.1 171.627 38.568C170.781 39.018 169.8 39.243 168.684 39.243C167.424 39.243 166.272 38.919 165.228 38.271C164.202 37.623 163.383 36.714 162.771 35.544C162.177 34.356 161.88 32.997 161.88 31.467ZM173.652 31.521C173.652 30.603 173.472 29.82 173.112 29.172C172.752 28.506 172.266 28.002 171.654 27.66C171.042 27.3 170.385 27.12 169.683 27.12C168.981 27.12 168.333 27.291 167.739 27.633C167.145 27.975 166.659 28.479 166.281 29.145C165.921 29.793 165.741 30.567 165.741 31.467C165.741 32.367 165.921 33.159 166.281 33.843C166.659 34.509 167.145 35.022 167.739 35.382C168.351 35.742 168.999 35.922 169.683 35.922C170.385 35.922 171.042 35.751 171.654 35.409C172.266 35.049 172.752 34.545 173.112 33.897C173.472 33.231 173.652 32.439 173.652 31.521ZM184.931 26.202C185.417 25.518 186.083 24.951 186.929 24.501C187.793 24.033 188.774 23.799 189.872 23.799C191.15 23.799 192.302 24.114 193.328 24.744C194.372 25.374 195.191 26.274 195.785 27.444C196.397 28.596 196.703 29.937 196.703 31.467C196.703 32.997 196.397 34.356 195.785 35.544C195.191 36.714 194.372 37.623 193.328 38.271C192.302 38.919 191.15 39.243 189.872 39.243C188.774 39.243 187.802 39.018 186.956 38.568C186.128 38.118 185.453 37.551 184.931 36.867V46.128H181.151V24.042H184.931V26.202ZM192.842 31.467C192.842 30.567 192.653 29.793 192.275 29.145C191.915 28.479 191.429 27.975 190.817 27.633C190.223 27.291 189.575 27.12 188.873 27.12C188.189 27.12 187.541 27.3 186.929 27.66C186.335 28.002 185.849 28.506 185.471 29.172C185.111 29.838 184.931 30.621 184.931 31.521C184.931 32.421 185.111 33.204 185.471 33.87C185.849 34.536 186.335 35.049 186.929 35.409C187.541 35.751 188.189 35.922 188.873 35.922C189.575 35.922 190.223 35.742 190.817 35.382C191.429 35.022 191.915 34.509 192.275 33.843C192.653 33.177 192.842 32.385 192.842 31.467ZM203.23 26.202C203.716 25.518 204.382 24.951 205.228 24.501C206.092 24.033 207.073 23.799 208.171 23.799C209.449 23.799 210.601 24.114 211.627 24.744C212.671 25.374 213.49 26.274 214.084 27.444C214.696 28.596 215.002 29.937 215.002 31.467C215.002 32.997 214.696 34.356 214.084 35.544C213.49 36.714 212.671 37.623 211.627 38.271C210.601 38.919 209.449 39.243 208.171 39.243C207.073 39.243 206.101 39.018 205.255 38.568C204.427 38.118 203.752 37.551 203.23 36.867V46.128H199.45V24.042H203.23V26.202ZM211.141 31.467C211.141 30.567 210.952 29.793 210.574 29.145C210.214 28.479 209.728 27.975 209.116 27.633C208.522 27.291 207.874 27.12 207.172 27.12C206.488 27.12 205.84 27.3 205.228 27.66C204.634 28.002 204.148 28.506 203.77 29.172C203.41 29.838 203.23 30.621 203.23 31.521C203.23 32.421 203.41 33.204 203.77 33.87C204.148 34.536 204.634 35.049 205.228 35.409C205.84 35.751 206.488 35.922 207.172 35.922C207.874 35.922 208.522 35.742 209.116 35.382C209.728 35.022 210.214 34.509 210.574 33.843C210.952 33.177 211.141 32.385 211.141 31.467Z" fill="black"/>
<rect width="62" height="62" rx="12" fill="white"/>
<g clip-path="url(#clip0)">
<path d="M48.1754 33.4907C49.7258 23.8394 43.1587 14.7586 33.5074 13.2082C23.8561 11.6579 14.7754 18.2249 13.225 27.8762C11.6746 37.5275 18.2417 46.6083 27.893 48.1587C37.5443 49.709 46.625 43.142 48.1754 33.4907Z" fill="#FF477E"/>
<path d="M21.1 40.7L22.6 35.2C21.8 33.7 21.3 32 21.3 30.3C21.3 24.7 25.9 20.1 31.5 20.1C37.1 20.1 41.7 24.7 41.7 30.3C41.7 35.9 37.1 40.5 31.5 40.5C29.8 40.5 28.2 40.1 26.7 39.3L21.1 40.7ZM26.9 37.2L27.2 37.4C28.5 38.2 29.9 38.6 31.4 38.6C35.9 38.6 39.6 34.9 39.6 30.4C39.6 25.9 35.9 22.2 31.4 22.2C26.9 22.2 23.2 25.9 23.2 30.4C23.2 31.9 23.6 33.4 24.4 34.7L24.6 35.1L23.8 38L26.9 37.2Z" fill="white"/>
<path fill-rule="evenodd" clip-rule="evenodd" d="M35.3 31.7C34.9 31.4 34.3 31.2 33.8 31.4C33.4 31.6 33.2 32.1 32.9 32.4C32.8 32.6 32.6 32.6 32.4 32.5C31.1 32 30 31 29.2 29.7C29.1 29.5 29.1 29.3 29.3 29.1C29.5 28.8 29.8 28.5 29.9 28.1C30 27.7 29.8 27.3 29.6 27C29.4 26.6 29.2 26 28.8 25.7C28.4 25.5 27.9 25.6 27.5 25.9C26.9 26.4 26.6 27.2 26.6 27.9C26.6 28.1 26.6 28.3 26.7 28.5C26.8 29 27.1 29.5 27.3 29.9C27.5 30.2 27.7 30.6 27.9 30.9C28.7 31.9 29.6 32.8 30.7 33.5C31.2 33.8 31.8 34.1 32.4 34.3C33.1 34.5 33.7 34.8 34.4 34.6C35.2 34.5 35.9 34 36.2 33.2C36.3 33 36.3 32.7 36.3 32.5C36.3 32.2 35.7 31.9 35.3 31.7Z" fill="white"/>
</g>
<defs>
<clipPath id="clip0">
<rect width="35.4" height="35.4" fill="white" transform="translate(13 13)"/>
</clipPath>
</defs>
</svg>
